<svg width="25" height="24" viewBox="0 0 25 24" fill="none" xmlns="http://www.w3.org/2000/svg">
<g clip-path="url(#clip0_57525_15908)">
<mask id="mask0_57525_15908" style="mask-type:alpha" maskUnits="userSpaceOnUse" x="0" y="0" width="25" height="24">
<rect x="0.142822" width="24" height="24" fill="#D9D9D9"/>
</mask>
<g mask="url(#mask0_57525_15908)">
<path d="M12.1428 19C11.8595 19 11.6222 18.904 11.4308 18.712C11.2388 18.5207 11.1428 18.2833 11.1428 18V13H6.14282C5.85949 13 5.62182 12.904 5.42982 12.712C5.23849 12.5207 5.14282 12.2833 5.14282 12C5.14282 11.7167 5.23849 11.479 5.42982 11.287C5.62182 11.0957 5.85949 11 6.14282 11H11.1428V6C11.1428 5.71667 11.2388 5.479 11.4308 5.287C11.6222 5.09567 11.8595 5 12.1428 5C12.4262 5 12.6638 5.09567 12.8558 5.287C13.0472 5.479 13.1428 5.71667 13.1428 6V11H18.1428C18.4262 11 18.6635 11.0957 18.8548 11.287C19.0468 11.479 19.1428 11.7167 19.1428 12C19.1428 12.2833 19.0468 12.5207 18.8548 12.712C18.6635 12.904 18.4262 13 18.1428 13H13.1428V18C13.1428 18.2833 13.0472 18.5207 12.8558 18.712C12.6638 18.904 12.4262 19 12.1428 19Z" fill="#686868"/>
</g>
</g>
<defs>
<clipPath id="clip0_57525_15908">
<rect x="0.142822" width="24" height="24" rx="12" fill="white"/>
</clipPath>
</defs>
</svg>
